<?xml version="1.0" encoding="UTF-8"?>
<svg id="Capa_1" data-name="Capa 1" xmlns="http://www.w3.org/2000/svg" xmlns:xlink="http://www.w3.org/1999/xlink" viewBox="0 0 1105.38 412.81">
  <defs>
    <style>
      .cls-1 {
        fill: url(#Degradado_sin_nombre_48);
      }

      .cls-2 {
        fill: url(#Degradado_sin_nombre_60-4);
      }

      .cls-3 {
        fill: url(#Degradado_sin_nombre_60-3);
      }

      .cls-4 {
        fill: #073a5a;
      }

      .cls-5 {
        fill: url(#Degradado_sin_nombre_48-3);
      }

      .cls-6 {
        fill: url(#Degradado_sin_nombre_60-2);
      }

      .cls-7 {
        fill: url(#Degradado_sin_nombre_60);
      }

      .cls-8 {
        fill: url(#Degradado_sin_nombre_48-2);
      }
    </style>
    <linearGradient id="Degradado_sin_nombre_60" data-name="Degradado sin nombre 60" x1="204.04" y1="395.92" x2="204.04" y2="0" gradientUnits="userSpaceOnUse">
      <stop offset="0" stop-color="#0180c2"/>
      <stop offset=".5" stop-color="#aeb737"/>
      <stop offset="1" stop-color="#f0ae1c"/>
    </linearGradient>
    <linearGradient id="Degradado_sin_nombre_48" data-name="Degradado sin nombre 48" x1="154.17" y1="398.28" x2="154.17" y2="40.57" gradientUnits="userSpaceOnUse">
      <stop offset="0" stop-color="#0180c2"/>
      <stop offset=".51" stop-color="#aeb737"/>
      <stop offset="1" stop-color="#f0ae1c"/>
    </linearGradient>
    <linearGradient id="Degradado_sin_nombre_48-2" data-name="Degradado sin nombre 48" x1="123.67" x2="123.67" y2="67.37" xlink:href="#Degradado_sin_nombre_48"/>
    <linearGradient id="Degradado_sin_nombre_48-3" data-name="Degradado sin nombre 48" x1="94.23" y1="353.95" x2="94.23" y2="54.33" xlink:href="#Degradado_sin_nombre_48"/>
    <linearGradient id="Degradado_sin_nombre_60-2" data-name="Degradado sin nombre 60" x1="255.02" y1="398.28" x2="255.02" y2="40.57" xlink:href="#Degradado_sin_nombre_60"/>
    <linearGradient id="Degradado_sin_nombre_60-3" data-name="Degradado sin nombre 60" x1="285.51" y1="398.28" x2="285.51" y2="67.37" xlink:href="#Degradado_sin_nombre_60"/>
    <linearGradient id="Degradado_sin_nombre_60-4" data-name="Degradado sin nombre 60" x1="314.1" y1="354.85" x2="314.1" y2="54.23" xlink:href="#Degradado_sin_nombre_60"/>
  </defs>
  <g>
    <path class="cls-4" d="M408.07,96.02v218.43c0,3.66-2.04,7.02-5.36,8.83l-125.48,68.65-16.64,9.11-15.07,8.24c-4.21,2.32-9,3.53-13.85,3.53h-55.28c-4.85,0-9.64-1.2-13.85-3.53l-15.07-8.24-16.64-9.11L5.36,323.28c-3.3-1.82-5.36-5.18-5.36-8.83V96.02c0-1.97,1.09-3.78,2.9-4.76l7.78-4.25c.09-.04.18-.06.27-.11.29-.15,2.7-1.18,6.36.74,2.35,1.27-2.17,4.23-3.81,5.24v217.65c0,2.6,1.44,4.99,3.79,6.28l135.89,75.11,9.64,5.33c4.03,2.22,8.62,3.4,13.29,3.4h55.86c4.68,0,9.26-1.18,13.29-3.4l9.64-5.33,135.91-75.11c2.33-1.29,3.79-3.68,3.79-6.28V92.89c-1.66-1.01-6.18-3.97-3.81-5.24,3.66-1.92,6.05-.89,6.34-.74.09.04.18.06.27.11l7.78,4.25c1.82.97,2.9,2.79,2.9,4.76Z"/>
    <path class="cls-7" d="M210.83,6.49v389.43h-13.58V6.49c0-3.59,3.04-6.49,6.8-6.49,1.86,0,3.57.72,4.79,1.9,1.24,1.16,1.99,2.79,1.99,4.59Z"/>
    <g>
      <path class="cls-1" d="M192.25,175.48v222.8l-74.65-135.96c-.47-.85-.82-1.73-1.06-2.66-.29-1.04-.44-2.09-.44-3.17V44.04c0-3.64,5.12-4.82,6.89-1.61l65.92,120.07c2.22,4.02,3.35,8.45,3.35,12.98Z"/>
      <path class="cls-8" d="M182.72,398.28l-115.42-106.22c-.91-.85-1.62-1.86-2.06-2.98-.2-.42-.33-.87-.42-1.33-.13-.55-.2-1.12-.2-1.69V71.03c0-3.19,3.99-4.84,6.45-2.68l31.33,27.69c2.66,2.35,4.17,5.64,4.17,9.09v153.44c0,1.08.16,2.16.44,3.19.22.89.58,1.73,1,2.54.04.06.07.13.11.19l74.6,133.8Z"/>
      <path class="cls-5" d="M168.98,394.88L19.49,312.35V87.41c0-1.9,2.17-3.09,3.88-2.11l27.74,15.49c2.48,1.37,3.99,3.89,3.99,6.62v183.36c0,.72.09,1.42.29,2.09.22.82.58,1.61,1.04,2.32.4.63.91,1.2,1.48,1.71l111.07,97.98Z"/>
    </g>
    <g>
      <path class="cls-6" d="M293.09,44.04v212.45c0,2.03-.53,4.04-1.51,5.83l-74.65,135.96v-222.8c0-4.52,1.15-8.96,3.35-12.98l65.92-120.07c1.77-3.21,6.89-2.03,6.89,1.61Z"/>
      <path class="cls-3" d="M344.56,71.03v215.02c0,2.26-.97,4.42-2.68,6l-115.42,106.22,74.63-133.8c1-1.82,1.53-3.87,1.53-5.92V105.12c0-3.44,1.51-6.74,4.17-9.09l31.33-27.69c2.46-2.16,6.45-.51,6.45,2.68Z"/>
      <path class="cls-2" d="M389.7,87.41v224.94l-151.2,83.57,112.78-99.02c1.79-1.56,2.81-3.8,2.81-6.13V107.41c0-2.73,1.53-5.24,3.99-6.62l27.74-15.49c1.73-.97,3.88.21,3.88,2.11Z"/>
    </g>
  </g>
  <g>
    <path class="cls-4" d="M455.87,250.09v-106.64h34.86c11.57,0,20.28,2.39,26.11,7.18,5.83,4.79,8.75,11.87,8.75,21.24,0,4.98-1.42,9.39-4.25,13.22-2.83,3.83-6.69,6.8-11.57,8.9,5.76,1.61,10.31,4.68,13.66,9.19,3.34,4.52,5.02,9.9,5.02,16.15,0,9.57-3.1,17.09-9.3,22.56-6.2,5.47-14.97,8.2-26.29,8.2h-36.99ZM469.93,188.93h21.24c6.15,0,11.07-1.54,14.76-4.62,3.69-3.08,5.53-7.27,5.53-12.55,0-5.87-1.71-10.14-5.13-12.81-3.42-2.67-8.62-4-15.6-4h-20.8v33.98ZM469.93,200.21v38.38h23.22c6.54,0,11.71-1.7,15.49-5.09,3.78-3.39,5.68-8.07,5.68-14.03,0-12.84-6.98-19.26-20.95-19.26h-23.44Z"/>
    <path class="cls-4" d="M547.2,149.82c0-2.2.67-4.05,2.01-5.57,1.34-1.51,3.33-2.27,5.97-2.27s4.64.76,6.01,2.27c1.37,1.51,2.05,3.37,2.05,5.57s-.68,4.03-2.05,5.49c-1.37,1.46-3.37,2.2-6.01,2.2s-4.63-.73-5.97-2.2c-1.34-1.46-2.01-3.3-2.01-5.49ZM561.85,250.09h-13.55v-79.25h13.55v79.25Z"/>
    <path class="cls-4" d="M650.62,211.34c0,12.11-2.78,21.84-8.35,29.19-5.57,7.35-13.04,11.02-22.41,11.02-10.01,0-17.75-3.54-23.22-10.62l-.66,9.16h-12.45v-112.5h13.55v41.97c5.47-6.79,13.01-10.18,22.63-10.18s17.18,3.64,22.67,10.91c5.49,7.28,8.24,17.24,8.24,29.88v1.17ZM637.07,209.8c0-9.23-1.78-16.36-5.35-21.39-3.56-5.03-8.69-7.54-15.38-7.54-8.94,0-15.36,4.15-19.26,12.45v34.28c4.15,8.3,10.62,12.45,19.41,12.45,6.49,0,11.55-2.51,15.16-7.54,3.61-5.03,5.42-12.6,5.42-22.71Z"/>
    <path class="cls-4" d="M682.41,250.09h-13.55v-112.5h13.55v112.5Z"/>
    <path class="cls-4" d="M704.16,149.82c0-2.2.67-4.05,2.01-5.57,1.34-1.51,3.33-2.27,5.97-2.27s4.64.76,6.01,2.27c1.37,1.51,2.05,3.37,2.05,5.57s-.68,4.03-2.05,5.49c-1.37,1.46-3.37,2.2-6.01,2.2s-4.63-.73-5.97-2.2c-1.34-1.46-2.01-3.3-2.01-5.49ZM718.81,250.09h-13.55v-79.25h13.55v79.25Z"/>
    <path class="cls-4" d="M736.9,209.73c0-7.76,1.53-14.75,4.58-20.95,3.05-6.2,7.3-10.99,12.74-14.36s11.66-5.05,18.64-5.05c10.79,0,19.52,3.74,26.18,11.21,6.67,7.47,10,17.41,10,29.81v.95c0,7.72-1.48,14.64-4.43,20.76s-7.18,10.9-12.67,14.32c-5.49,3.42-11.8,5.13-18.93,5.13-10.74,0-19.45-3.74-26.11-11.21-6.66-7.47-10-17.36-10-29.66v-.95ZM750.52,211.34c0,8.79,2.04,15.85,6.12,21.17,4.08,5.32,9.53,7.98,16.37,7.98s12.35-2.7,16.41-8.09c4.05-5.4,6.08-12.95,6.08-22.67,0-8.69-2.06-15.73-6.19-21.13-4.13-5.4-9.61-8.09-16.44-8.09s-12.08,2.66-16.19,7.98c-4.1,5.32-6.15,12.94-6.15,22.85Z"/>
    <path class="cls-4" d="M844.42,151.65v19.19h14.79v10.47h-14.79v49.21c0,3.18.66,5.56,1.98,7.15,1.32,1.59,3.56,2.38,6.74,2.38,1.56,0,3.71-.29,6.45-.88v10.92c-3.56.97-7.03,1.46-10.4,1.46-6.05,0-10.62-1.83-13.7-5.49s-4.61-8.86-4.61-15.6v-49.15h-14.43v-10.47h14.43v-19.19h13.55Z"/>
    <path class="cls-4" d="M907.92,251.55c-10.74,0-19.48-3.53-26.22-10.58-6.74-7.05-10.11-16.49-10.11-28.31v-2.49c0-7.86,1.5-14.88,4.5-21.06,3-6.18,7.2-11.01,12.6-14.5,5.39-3.49,11.24-5.24,17.54-5.24,10.3,0,18.31,3.39,24.02,10.18,5.71,6.79,8.57,16.5,8.57,29.15v5.64h-53.69c.19,7.81,2.48,14.12,6.85,18.93s9.92,7.21,16.66,7.21c4.79,0,8.84-.98,12.16-2.93,3.32-1.95,6.23-4.54,8.72-7.76l8.28,6.45c-6.64,10.21-16.6,15.31-29.88,15.31ZM906.24,180.51c-5.47,0-10.06,1.99-13.77,5.97-3.71,3.98-6.01,9.56-6.88,16.74h39.7v-1.03c-.39-6.88-2.25-12.22-5.57-16-3.32-3.78-7.81-5.68-13.48-5.68Z"/>
    <path class="cls-4" d="M986.29,240.49c4.83,0,9.06-1.46,12.67-4.39,3.61-2.93,5.61-6.59,6.01-10.99h12.82c-.25,4.54-1.81,8.86-4.69,12.96-2.88,4.1-6.73,7.37-11.54,9.81-4.81,2.44-9.9,3.66-15.27,3.66-10.79,0-19.37-3.6-25.74-10.8-6.37-7.2-9.56-17.05-9.56-29.55v-2.27c0-7.71,1.42-14.58,4.25-20.58,2.83-6.01,6.9-10.67,12.2-13.99,5.3-3.32,11.56-4.98,18.79-4.98,8.89,0,16.27,2.66,22.16,7.98,5.88,5.32,9.02,12.23,9.41,20.73h-12.82c-.39-5.13-2.33-9.34-5.82-12.63-3.49-3.29-7.8-4.94-12.93-4.94-6.88,0-12.22,2.48-16,7.43-3.79,4.96-5.68,12.12-5.68,21.5v2.56c0,9.13,1.88,16.16,5.64,21.09,3.76,4.93,9.13,7.4,16.11,7.4Z"/>
    <path class="cls-4" d="M1046.57,180.43c6.01-7.37,13.82-11.06,23.44-11.06,16.75,0,25.2,9.45,25.34,28.34v52.37h-13.55v-52.44c-.05-5.71-1.36-9.94-3.92-12.67-2.56-2.73-6.56-4.1-11.98-4.1-4.39,0-8.25,1.17-11.57,3.52-3.32,2.34-5.91,5.42-7.76,9.23v56.47h-13.55v-112.5h13.55v42.85Z"/>
  </g>
</svg>