<?xml version="1.0" encoding="UTF-8"?>
<svg id="Capa_1" data-name="Capa 1" xmlns="http://www.w3.org/2000/svg" xmlns:xlink="http://www.w3.org/1999/xlink" viewBox="0 0 408.07 504.73">
  <defs>
    <style>
      .cls-1 {
        fill: url(#Degradado_sin_nombre_48);
      }

      .cls-2 {
        fill: url(#Degradado_sin_nombre_60-3);
      }

      .cls-3 {
        fill: url(#Degradado_sin_nombre_79);
      }

      .cls-4 {
        fill: #073a5a;
      }

      .cls-5 {
        fill: url(#Degradado_sin_nombre_48-3);
      }

      .cls-6 {
        fill: url(#Degradado_sin_nombre_60-2);
      }

      .cls-7 {
        fill: url(#Degradado_sin_nombre_60);
      }

      .cls-8 {
        fill: url(#Degradado_sin_nombre_48-2);
      }
    </style>
    <linearGradient id="Degradado_sin_nombre_79" data-name="Degradado sin nombre 79" x1="204.04" y1="395.92" x2="204.04" y2="0" gradientUnits="userSpaceOnUse">
      <stop offset="0" stop-color="#0180c2"/>
      <stop offset=".5" stop-color="#aeb737"/>
      <stop offset="1" stop-color="#f0ae1c"/>
    </linearGradient>
    <linearGradient id="Degradado_sin_nombre_48" data-name="Degradado sin nombre 48" x1="154.17" y1="398.28" x2="154.17" y2="40.57" gradientUnits="userSpaceOnUse">
      <stop offset="0" stop-color="#0180c2"/>
      <stop offset=".51" stop-color="#aeb737"/>
      <stop offset="1" stop-color="#f0ae1c"/>
    </linearGradient>
    <linearGradient id="Degradado_sin_nombre_48-2" data-name="Degradado sin nombre 48" x1="123.67" x2="123.67" y2="67.37" xlink:href="#Degradado_sin_nombre_48"/>
    <linearGradient id="Degradado_sin_nombre_48-3" data-name="Degradado sin nombre 48" x1="94.23" y1="353.95" x2="94.23" y2="54.33" xlink:href="#Degradado_sin_nombre_48"/>
    <linearGradient id="Degradado_sin_nombre_60" data-name="Degradado sin nombre 60" x1="255.02" y1="398.28" x2="255.02" y2="40.57" gradientUnits="userSpaceOnUse">
      <stop offset="0" stop-color="#0180c2"/>
      <stop offset=".5" stop-color="#aeb737"/>
      <stop offset="1" stop-color="#f0ae1c"/>
    </linearGradient>
    <linearGradient id="Degradado_sin_nombre_60-2" data-name="Degradado sin nombre 60" x1="285.51" x2="285.51" y2="67.37" xlink:href="#Degradado_sin_nombre_60"/>
    <linearGradient id="Degradado_sin_nombre_60-3" data-name="Degradado sin nombre 60" x1="314.1" y1="354.85" x2="314.1" y2="54.23" xlink:href="#Degradado_sin_nombre_60"/>
  </defs>
  <g>
    <path class="cls-4" d="M408.07,96.02v218.43c0,3.66-2.04,7.02-5.36,8.83l-125.48,68.65-16.64,9.11-15.07,8.24c-4.21,2.32-9,3.53-13.85,3.53h-55.28c-4.85,0-9.64-1.2-13.85-3.53l-15.07-8.24-16.64-9.11L5.36,323.28c-3.3-1.82-5.36-5.18-5.36-8.83V96.02c0-1.97,1.09-3.78,2.9-4.76l7.78-4.25c.09-.04.18-.06.27-.11.29-.15,2.7-1.18,6.36.74,2.35,1.27-2.17,4.23-3.81,5.24v217.65c0,2.6,1.44,4.99,3.79,6.28l135.89,75.11,9.64,5.33c4.03,2.22,8.62,3.4,13.29,3.4h55.86c4.68,0,9.26-1.18,13.29-3.4l9.64-5.33,135.91-75.11c2.33-1.29,3.79-3.68,3.79-6.28V92.89c-1.66-1.01-6.18-3.97-3.81-5.24,3.66-1.92,6.05-.89,6.34-.74.09.04.18.06.27.11l7.78,4.25c1.82.97,2.9,2.79,2.9,4.76Z"/>
    <path class="cls-3" d="M210.83,6.49v389.43h-13.58V6.49c0-3.59,3.04-6.49,6.8-6.49,1.86,0,3.57.72,4.79,1.9,1.24,1.16,1.99,2.79,1.99,4.59Z"/>
    <g>
      <path class="cls-1" d="M192.25,175.48v222.8l-74.65-135.96c-.47-.85-.82-1.73-1.06-2.66-.29-1.04-.44-2.09-.44-3.17V44.04c0-3.64,5.12-4.82,6.89-1.61l65.92,120.07c2.22,4.02,3.35,8.45,3.35,12.98Z"/>
      <path class="cls-8" d="M182.72,398.28l-115.42-106.22c-.91-.85-1.62-1.86-2.06-2.98-.2-.42-.33-.87-.42-1.33-.13-.55-.2-1.12-.2-1.69V71.03c0-3.19,3.99-4.84,6.45-2.68l31.33,27.69c2.66,2.35,4.17,5.64,4.17,9.09v153.44c0,1.08.16,2.16.44,3.19.22.89.58,1.73,1,2.54.04.06.07.13.11.19l74.6,133.8Z"/>
      <path class="cls-5" d="M168.98,394.88L19.49,312.35V87.41c0-1.9,2.17-3.09,3.88-2.11l27.74,15.49c2.48,1.37,3.99,3.89,3.99,6.62v183.36c0,.72.09,1.42.29,2.09.22.82.58,1.61,1.04,2.32.4.63.91,1.2,1.48,1.71l111.07,97.98Z"/>
    </g>
    <g>
      <path class="cls-7" d="M293.09,44.04v212.45c0,2.03-.53,4.04-1.51,5.83l-74.65,135.96v-222.8c0-4.52,1.15-8.96,3.35-12.98l65.92-120.07c1.77-3.21,6.89-2.03,6.89,1.61Z"/>
      <path class="cls-6" d="M344.56,71.03v215.02c0,2.26-.97,4.42-2.68,6l-115.42,106.22,74.63-133.8c1-1.82,1.53-3.87,1.53-5.92V105.12c0-3.44,1.51-6.74,4.17-9.09l31.33-27.69c2.46-2.16,6.45-.51,6.45,2.68Z"/>
      <path class="cls-2" d="M389.7,87.41v224.94l-151.2,83.57,112.78-99.02c1.79-1.56,2.81-3.8,2.81-6.13V107.41c0-2.73,1.53-5.24,3.99-6.62l27.74-15.49c1.73-.97,3.88.21,3.88,2.11Z"/>
    </g>
  </g>
  <g>
    <path class="cls-4" d="M32.44,482.84v-57.44h18.78c6.23,0,10.92,1.29,14.06,3.87,3.14,2.58,4.71,6.39,4.71,11.44,0,2.68-.76,5.06-2.29,7.12s-3.6,3.66-6.23,4.79c3.1.87,5.56,2.52,7.36,4.95,1.8,2.43,2.7,5.33,2.7,8.7,0,5.16-1.67,9.21-5.01,12.15-3.34,2.95-8.06,4.42-14.16,4.42h-19.92ZM40.01,449.9h11.44c3.31,0,5.96-.83,7.95-2.49,1.99-1.66,2.98-3.92,2.98-6.76,0-3.16-.92-5.46-2.76-6.9-1.84-1.44-4.64-2.15-8.4-2.15h-11.2v18.31ZM40.01,455.97v20.67h12.51c3.52,0,6.31-.91,8.34-2.74,2.04-1.83,3.06-4.35,3.06-7.56,0-6.92-3.76-10.38-11.28-10.38h-12.62Z"/>
    <path class="cls-4" d="M81.64,428.83c0-1.18.36-2.18,1.08-3,.72-.81,1.8-1.22,3.22-1.22s2.5.41,3.23,1.22c.74.82,1.1,1.82,1.1,3s-.37,2.17-1.1,2.96c-.74.79-1.81,1.18-3.23,1.18s-2.49-.39-3.22-1.18c-.72-.79-1.08-1.78-1.08-2.96ZM89.53,482.84h-7.3v-42.69h7.3v42.69Z"/>
    <path class="cls-4" d="M137.34,461.97c0,6.52-1.5,11.76-4.5,15.72-3,3.96-7.02,5.94-12.07,5.94-5.39,0-9.56-1.91-12.51-5.72l-.36,4.93h-6.71v-60.6h7.3v22.61c2.95-3.66,7.01-5.48,12.19-5.48s9.25,1.96,12.21,5.88,4.44,9.28,4.44,16.1v.63ZM130.04,461.14c0-4.97-.96-8.81-2.88-11.52-1.92-2.71-4.68-4.06-8.29-4.06-4.81,0-8.27,2.24-10.38,6.71v18.46c2.24,4.47,5.72,6.71,10.46,6.71,3.5,0,6.22-1.35,8.17-4.06,1.95-2.71,2.92-6.79,2.92-12.23Z"/>
    <path class="cls-4" d="M154.46,482.84h-7.3v-60.6h7.3v60.6Z"/>
    <path class="cls-4" d="M166.18,428.83c0-1.18.36-2.18,1.08-3,.72-.81,1.8-1.22,3.22-1.22s2.5.41,3.23,1.22c.74.82,1.1,1.82,1.1,3s-.37,2.17-1.1,2.96c-.74.79-1.81,1.18-3.23,1.18s-2.49-.39-3.22-1.18c-.72-.79-1.08-1.78-1.08-2.96ZM174.07,482.84h-7.3v-42.69h7.3v42.69Z"/>
    <path class="cls-4" d="M183.82,461.1c0-4.18.82-7.94,2.47-11.28,1.64-3.34,3.93-5.92,6.86-7.73,2.93-1.82,6.28-2.72,10.04-2.72,5.81,0,10.51,2.01,14.1,6.04,3.59,4.02,5.38,9.38,5.38,16.06v.51c0,4.16-.79,7.88-2.39,11.18s-3.87,5.87-6.82,7.71c-2.96,1.84-6.36,2.76-10.2,2.76-5.79,0-10.47-2.01-14.06-6.04-3.59-4.02-5.39-9.35-5.39-15.98v-.51ZM191.15,461.97c0,4.73,1.1,8.54,3.29,11.4,2.2,2.87,5.13,4.3,8.82,4.3s6.65-1.45,8.84-4.36,3.28-6.98,3.28-12.21c0-4.68-1.11-8.48-3.33-11.38-2.22-2.91-5.18-4.36-8.86-4.36s-6.51,1.43-8.72,4.3c-2.21,2.87-3.31,6.97-3.31,12.31Z"/>
    <path class="cls-4" d="M241.73,429.82v10.34h7.97v5.64h-7.97v26.51c0,1.71.36,3,1.07,3.85s1.92,1.28,3.63,1.28c.84,0,2-.16,3.47-.47v5.88c-1.92.52-3.79.78-5.6.78-3.26,0-5.72-.99-7.38-2.96-1.66-1.97-2.49-4.77-2.49-8.4v-26.47h-7.77v-5.64h7.77v-10.34h7.3Z"/>
    <path class="cls-4" d="M275.94,483.63c-5.79,0-10.49-1.9-14.12-5.7-3.63-3.8-5.44-8.88-5.44-15.25v-1.34c0-4.23.81-8.02,2.43-11.34,1.62-3.33,3.88-5.93,6.79-7.81,2.91-1.88,6.06-2.82,9.45-2.82,5.55,0,9.86,1.83,12.94,5.48s4.62,8.89,4.62,15.7v3.04h-28.92c.1,4.21,1.33,7.61,3.69,10.2,2.35,2.59,5.35,3.89,8.98,3.89,2.58,0,4.76-.53,6.55-1.58,1.79-1.05,3.35-2.45,4.7-4.18l4.46,3.47c-3.58,5.5-8.94,8.25-16.1,8.25ZM275.03,445.36c-2.95,0-5.42,1.07-7.42,3.21-2,2.14-3.24,5.15-3.71,9.02h21.38v-.55c-.21-3.71-1.21-6.58-3-8.62s-4.21-3.06-7.26-3.06Z"/>
    <path class="cls-4" d="M318.15,477.67c2.6,0,4.88-.79,6.83-2.37s3.02-3.55,3.24-5.92h6.9c-.13,2.45-.97,4.77-2.53,6.98-1.55,2.21-3.62,3.97-6.21,5.29s-5.33,1.97-8.23,1.97c-5.81,0-10.43-1.94-13.87-5.82-3.43-3.88-5.15-9.19-5.15-15.92v-1.22c0-4.16.76-7.85,2.29-11.09,1.53-3.24,3.71-5.75,6.57-7.54,2.85-1.79,6.23-2.68,10.12-2.68,4.79,0,8.76,1.43,11.93,4.3,3.17,2.87,4.86,6.59,5.07,11.17h-6.9c-.21-2.76-1.26-5.03-3.14-6.81-1.88-1.78-4.2-2.66-6.96-2.66-3.71,0-6.58,1.33-8.62,4-2.04,2.67-3.06,6.53-3.06,11.58v1.38c0,4.92,1.01,8.71,3.04,11.36,2.03,2.66,4.92,3.99,8.68,3.99Z"/>
    <path class="cls-4" d="M350.62,445.32c3.23-3.97,7.44-5.96,12.62-5.96,9.02,0,13.57,5.09,13.65,15.27v28.21h-7.3v-28.25c-.03-3.08-.73-5.35-2.11-6.83-1.38-1.47-3.53-2.21-6.45-2.21-2.37,0-4.45.63-6.23,1.89-1.79,1.26-3.18,2.92-4.18,4.97v30.42h-7.3v-60.6h7.3v23.08Z"/>
  </g>
</svg>